<svg width="1440" height="720" viewBox="0 0 1440 720" fill="none" xmlns="http://www.w3.org/2000/svg">
  <rect width="1440" height="720" fill="#2563EB"/>
  <g opacity="0.07" stroke="white">
    <path d="M120 120H1320"/>
    <path d="M120 300H1320"/>
    <path d="M120 480H1320"/>
    <path d="M240 72V648"/>
    <path d="M480 72V648"/>
    <path d="M720 72V648"/>
    <path d="M960 72V648"/>
    <path d="M1200 72V648"/>
  </g>
  <g transform="translate(720 360)" opacity="0.12">
    <circle cx="0" cy="0" r="172" stroke="white" stroke-width="2"/>
    <circle cx="0" cy="0" r="104" stroke="white" stroke-width="1.5" stroke-dasharray="10 12"/>
    <path d="M0 -56V-192" stroke="white" stroke-width="2"/>
    <path d="M56 0H192" stroke="white" stroke-width="2"/>
    <path d="M0 56V192" stroke="white" stroke-width="2"/>
    <path d="M-56 0H-192" stroke="white" stroke-width="2"/>
    <path d="M40 -40L136 -136" stroke="white" stroke-width="2"/>
    <path d="M40 40L136 136" stroke="white" stroke-width="2"/>
    <path d="M-40 40L-136 136" stroke="white" stroke-width="2"/>
    <path d="M-40 -40L-136 -136" stroke="white" stroke-width="2"/>
    <rect x="-58" y="-58" width="116" height="116" fill="white" fill-opacity="0.05" stroke="white" stroke-opacity="0.16" stroke-width="2"/>
  </g>
</svg>
