<svg width="520" height="420" viewBox="0 0 520 420" fill="none" xmlns="http://www.w3.org/2000/svg">
  <g opacity="0.28" stroke="#CBD5E1">
    <path d="M44 92H476"/>
    <path d="M44 210H476"/>
    <path d="M44 328H476"/>
    <path d="M112 40V380"/>
    <path d="M260 40V380"/>
    <path d="M408 40V380"/>
  </g>
  <rect x="58" y="118" width="136" height="168" fill="white" stroke="#CBD5E1" stroke-width="2"/>
  <circle cx="92" cy="150" r="10" fill="#0F172A"/>
  <rect x="84" y="188" width="88" height="14" fill="#E2E8F0"/>
  <rect x="84" y="218" width="68" height="14" fill="#DBEAFE"/>
  <rect x="84" y="248" width="92" height="12" fill="#E2E8F0"/>
  <path d="M194 202H240" stroke="#2563EB" stroke-width="3" stroke-dasharray="8 10"/>
  <rect x="240" y="170" width="64" height="64" fill="#0F172A"/>
  <rect x="258" y="188" width="28" height="28" fill="#2563EB" opacity="0.18"/>
  <path d="M304 202H350" stroke="#2563EB" stroke-width="3" stroke-dasharray="8 10"/>
  <rect x="350" y="118" width="112" height="168" fill="white" stroke="#CBD5E1" stroke-width="2"/>
  <circle cx="384" cy="150" r="10" fill="#2563EB"/>
  <rect x="376" y="188" width="60" height="14" fill="#DBEAFE"/>
  <rect x="376" y="218" width="74" height="44" fill="#F8FAFC" stroke="#CBD5E1"/>
  <rect x="444" y="218" width="18" height="44" fill="#60A5FA"/>
</svg>
