<svg xmlns="http://www.w3.org/2000/svg" viewBox="0 0 1440 720" width="100%" height="100%">
  <defs>
    <pattern id="faintGrid" width="80" height="80" patternUnits="userSpaceOnUse" patternTransform="translate(40, 40)">
      <path d="M 80 0 L 0 0 0 80" fill="none" stroke="#FFFFFF" stroke-width="1" opacity="0.04" />
    </pattern>
  </defs>
  <rect width="100%" height="100%" fill="#2563EB" />
  <rect width="100%" height="100%" fill="url(#faintGrid)" />
  <g fill="none" stroke="#FFFFFF" stroke-width="1.5" opacity="0.15" stroke-linecap="square">
    <path d="M 80 120 L 80 80 L 120 80" />
    <path d="M 1360 120 L 1360 80 L 1320 80" />
    <path d="M 80 600 L 80 640 L 120 640" />
    <path d="M 1360 600 L 1360 640 L 1320 640" />
    <path d="M 72 80 L 64 80 M 80 72 L 80 64" stroke-width="1" />
    <path d="M 1368 80 L 1376 80 M 1360 72 L 1360 64" stroke-width="1" />
    <path d="M 72 640 L 64 640 M 80 648 L 80 656" stroke-width="1" />
    <path d="M 1368 640 L 1376 640 M 1360 648 L 1360 656" stroke-width="1" />
  </g>
  <g fill="none" stroke="#FFFFFF" opacity="0.12">
    <circle cx="720" cy="360" r="230" stroke-width="0.5" />
    <circle cx="720" cy="360" r="280" stroke-width="1.5" stroke-dasharray="8 16">
      <animate attributeName="stroke-dashoffset" values="0;64" dur="16s" repeatCount="indefinite" />
    </circle>
    <circle cx="720" cy="360" r="420" stroke-width="1" />
    <circle cx="720" cy="360" r="580" stroke-width="0.5" />
  </g>
  <g fill="none" stroke="#FFFFFF" stroke-width="1" opacity="0.12">
    <line x1="1000" y1="360" x2="1440" y2="360" />
    <line x1="440" y1="360" x2="0" y2="360" />
    <line x1="720" y1="640" x2="720" y2="720" />
    <line x1="720" y1="80" x2="720" y2="0" />
    <line x1="918" y1="162" x2="1172" y2="-92" />
    <line x1="918" y1="558" x2="1172" y2="812" />
    <line x1="522" y1="558" x2="268" y2="812" />
    <line x1="522" y1="162" x2="268" y2="-92" />
  </g>
  <g fill="#2563EB" stroke="#FFFFFF" stroke-width="1.5" opacity="0.25">
    <circle cx="1140" cy="360" r="6" />
    <circle cx="300" cy="360" r="6" />
    <circle cx="1017" cy="63" r="6" />
    <circle cx="1017" cy="657" r="6" />
    <circle cx="423" cy="657" r="6" />
    <circle cx="423" cy="63" r="6" />
  </g>
  <g fill="#FFFFFF" opacity="0.3">
    <animate attributeName="opacity" values="0.2;0.35;0.2" dur="5s" repeatCount="indefinite" />
    <rect x="997" y="357" width="6" height="6" rx="1" />
    <rect x="437" y="357" width="6" height="6" rx="1" />
    <rect x="717" y="637" width="6" height="6" rx="1" />
    <rect x="717" y="77" width="6" height="6" rx="1" />
    <rect x="915" y="159" width="6" height="6" rx="1" />
    <rect x="915" y="555" width="6" height="6" rx="1" />
    <rect x="519" y="555" width="6" height="6" rx="1" />
    <rect x="519" y="159" width="6" height="6" rx="1" />
  </g>
  <g fill="#FFFFFF" opacity="0.15">
    <circle cx="1280" cy="360" r="2" />
    <circle cx="160" cy="360" r="2" />
    <circle cx="1080" cy="720" r="2" />
    <circle cx="1080" cy="0" r="2" />
    <circle cx="360" cy="720" r="2" />
    <circle cx="360" cy="0" r="2" />
  </g>
</svg>
