<svg xmlns="http://www.w3.org/2000/svg" viewBox="0 0 520 420" width="100%" height="100%">
  <defs>
    <pattern id="grid" width="40" height="40" patternUnits="userSpaceOnUse">
      <path d="M 40 0 L 0 0 0 40" fill="none" stroke="#DBEAFE" stroke-width="1" />
    </pattern>
  </defs>
  <rect width="100%" height="100%" fill="url(#grid)" />
  <g stroke="#94A3B8" stroke-width="1.5" stroke-linecap="square">
    <path d="M 32 40 L 48 40 M 40 32 L 40 48" />
    <path d="M 472 40 L 488 40 M 480 32 L 480 48" />
    <path d="M 32 380 L 48 380 M 40 372 L 40 388" />
    <path d="M 472 380 L 488 380 M 480 372 L 480 388" />
  </g>
  <g fill="none" stroke-width="2" stroke-dasharray="6 6">
    <animate attributeName="stroke-dashoffset" values="0;24" dur="3.8s" repeatCount="indefinite" />
    <path d="M 260 210 L 400 110" stroke="#2563EB" />
    <path d="M 260 210 L 160 330" stroke="#2563EB" />
    <path d="M 260 210 L 380 310" stroke="#94A3B8" />
    <path d="M 260 210 L 100 190" stroke="#94A3B8" />
    <path d="M 260 210 L 240 70" stroke="#94A3B8" />
  </g>
  <g stroke="#FFFFFF" stroke-width="1.5">
    <circle cx="330" cy="160" r="3.5" fill="#2563EB" />
    <circle cx="210" cy="270" r="3.5" fill="#2563EB" />
    <circle cx="320" cy="260" r="3.5" fill="#94A3B8" />
    <circle cx="180" cy="200" r="3.5" fill="#94A3B8" />
    <circle cx="250" cy="140" r="3.5" fill="#94A3B8" />
  </g>
  <g fill="none" stroke="#94A3B8" stroke-width="2" stroke-linecap="square">
    <path d="M 200 180 L 200 160 L 220 160" />
    <path d="M 320 160 L 340 160 L 340 180" />
    <path d="M 340 240 L 340 260 L 320 260" />
    <path d="M 220 260 L 200 260 L 200 240" />
  </g>
  <rect x="210" y="160" width="100" height="100" fill="#0F172A" />
  <rect x="220" y="170" width="80" height="80" fill="none" stroke="#1E293B" stroke-width="2" />
  <g fill="none" stroke="#1E293B" stroke-width="1.5">
    <line x1="260" y1="170" x2="260" y2="250" />
    <line x1="220" y1="210" x2="300" y2="210" />
  </g>
  <g fill="#0F172A" stroke="#60A5FA" stroke-width="1.5">
    <rect x="236" y="156" width="8" height="8" />
    <rect x="276" y="156" width="8" height="8" />
    <rect x="236" y="256" width="8" height="8" />
    <rect x="276" y="256" width="8" height="8" />
    <rect x="206" y="186" width="8" height="8" />
    <rect x="206" y="226" width="8" height="8" />
    <rect x="306" y="186" width="8" height="8" />
    <rect x="306" y="226" width="8" height="8" />
  </g>
  <rect x="240" y="190" width="40" height="40" fill="#2563EB" />
  <rect x="248" y="198" width="24" height="24" fill="none" stroke="#60A5FA" stroke-width="2" />
  <rect x="256" y="206" width="8" height="8" fill="#FFFFFF" />
  <g fill="none" stroke-width="1.5">
    <circle cx="400" cy="110" r="26" stroke="#60A5FA" stroke-dasharray="4 4" />
    <circle cx="160" cy="330" r="26" stroke="#60A5FA" stroke-dasharray="4 4" />
    <circle cx="380" cy="310" r="26" stroke="#CBD5E1" />
    <circle cx="100" cy="190" r="26" stroke="#CBD5E1" />
    <circle cx="240" cy="70" r="26" stroke="#CBD5E1" />
  </g>
  <g fill="#FFFFFF" stroke-width="2">
    <circle cx="400" cy="110" r="14" stroke="#2563EB" />
    <circle cx="160" cy="330" r="14" stroke="#2563EB" />
    <circle cx="380" cy="310" r="14" stroke="#94A3B8" />
    <circle cx="100" cy="190" r="14" stroke="#94A3B8" />
    <circle cx="240" cy="70" r="14" stroke="#94A3B8" />
  </g>
  <g>
    <circle cx="400" cy="110" r="5" fill="#2563EB">
      <animate attributeName="r" values="4.5;5.5;4.5" dur="3s" repeatCount="indefinite" />
    </circle>
    <circle cx="160" cy="330" r="5" fill="#2563EB">
      <animate attributeName="r" values="4.5;5.5;4.5" dur="3s" begin="0.6s" repeatCount="indefinite" />
    </circle>
    <circle cx="380" cy="310" r="5" fill="#94A3B8">
      <animate attributeName="opacity" values="0.6;1;0.6" dur="3.4s" repeatCount="indefinite" />
    </circle>
    <circle cx="100" cy="190" r="5" fill="#94A3B8">
      <animate attributeName="opacity" values="0.6;1;0.6" dur="3.4s" begin="0.5s" repeatCount="indefinite" />
    </circle>
    <circle cx="240" cy="70" r="5" fill="#94A3B8">
      <animate attributeName="opacity" values="0.6;1;0.6" dur="3.4s" begin="1s" repeatCount="indefinite" />
    </circle>
  </g>
</svg>
